<mxfile host="app.diagrams.net" modified="2023-06-25T11:46:03.222Z" agent="Mozilla/5.0 (Windows NT 10.0; Win64; x64) AppleWebKit/537.36 (KHTML, like Gecko) Chrome/112.0.0.0 YaBrowser/23.5.2.625 Yowser/2.5 Safari/537.36" etag="0iiDiKA_JKbyf7Xn_04I" version="21.5.0" type="device">
  <diagram name="Страница 1" id="rvtePS1ktOWHRlhw5XmC">
    <mxGraphModel dx="1167" dy="630" grid="1" gridSize="10" guides="1" tooltips="1" connect="1" arrows="1" fold="1" page="1" pageScale="1" pageWidth="827" pageHeight="1169" math="0" shadow="0">
      <root>
        <mxCell id="0" />
        <mxCell id="1" parent="0" />
        <mxCell id="tNAgE3q3dSIHld7dVEuq-1" value="Клиенты" style="swimlane;whiteSpace=wrap;html=1;" vertex="1" parent="1">
          <mxGeometry x="120" y="270" width="140" height="120" as="geometry" />
        </mxCell>
        <mxCell id="tNAgE3q3dSIHld7dVEuq-28" style="edgeStyle=orthogonalEdgeStyle;rounded=0;orthogonalLoop=1;jettySize=auto;html=1;entryX=0.5;entryY=1;entryDx=0;entryDy=0;" edge="1" parent="1" source="tNAgE3q3dSIHld7dVEuq-3" target="tNAgE3q3dSIHld7dVEuq-6">
          <mxGeometry relative="1" as="geometry" />
        </mxCell>
        <mxCell id="tNAgE3q3dSIHld7dVEuq-3" value="Статус оплаты" style="swimlane;whiteSpace=wrap;html=1;" vertex="1" parent="1">
          <mxGeometry x="330" y="450" width="140" height="130" as="geometry" />
        </mxCell>
        <mxCell id="tNAgE3q3dSIHld7dVEuq-14" style="edgeStyle=orthogonalEdgeStyle;rounded=0;orthogonalLoop=1;jettySize=auto;html=1;entryX=0.5;entryY=0;entryDx=0;entryDy=0;" edge="1" parent="1" source="tNAgE3q3dSIHld7dVEuq-5" target="tNAgE3q3dSIHld7dVEuq-6">
          <mxGeometry relative="1" as="geometry" />
        </mxCell>
        <mxCell id="tNAgE3q3dSIHld7dVEuq-5" value="Тип услуги" style="swimlane;whiteSpace=wrap;html=1;" vertex="1" parent="1">
          <mxGeometry x="330" y="80" width="140" height="120" as="geometry" />
        </mxCell>
        <mxCell id="tNAgE3q3dSIHld7dVEuq-7" style="edgeStyle=orthogonalEdgeStyle;rounded=0;orthogonalLoop=1;jettySize=auto;html=1;exitX=0;exitY=0.5;exitDx=0;exitDy=0;entryX=1;entryY=0.5;entryDx=0;entryDy=0;" edge="1" parent="1" source="tNAgE3q3dSIHld7dVEuq-6" target="tNAgE3q3dSIHld7dVEuq-1">
          <mxGeometry relative="1" as="geometry" />
        </mxCell>
        <mxCell id="tNAgE3q3dSIHld7dVEuq-6" value="Заказ" style="swimlane;whiteSpace=wrap;html=1;" vertex="1" parent="1">
          <mxGeometry x="330" y="270" width="140" height="120" as="geometry" />
        </mxCell>
        <mxCell id="tNAgE3q3dSIHld7dVEuq-8" value="1" style="text;html=1;align=center;verticalAlign=middle;resizable=0;points=[];autosize=1;strokeColor=none;fillColor=none;" vertex="1" parent="1">
          <mxGeometry x="300" y="298" width="30" height="30" as="geometry" />
        </mxCell>
        <mxCell id="tNAgE3q3dSIHld7dVEuq-9" value="1" style="text;html=1;align=center;verticalAlign=middle;resizable=0;points=[];autosize=1;strokeColor=none;fillColor=none;" vertex="1" parent="1">
          <mxGeometry x="260" y="298" width="30" height="30" as="geometry" />
        </mxCell>
        <mxCell id="tNAgE3q3dSIHld7dVEuq-32" style="edgeStyle=orthogonalEdgeStyle;rounded=0;orthogonalLoop=1;jettySize=auto;html=1;exitX=0;exitY=0.5;exitDx=0;exitDy=0;entryX=1;entryY=0.5;entryDx=0;entryDy=0;" edge="1" parent="1" source="tNAgE3q3dSIHld7dVEuq-10" target="tNAgE3q3dSIHld7dVEuq-6">
          <mxGeometry relative="1" as="geometry" />
        </mxCell>
        <mxCell id="tNAgE3q3dSIHld7dVEuq-10" value="Игры" style="swimlane;whiteSpace=wrap;html=1;" vertex="1" parent="1">
          <mxGeometry x="550" y="270" width="140" height="120" as="geometry" />
        </mxCell>
        <mxCell id="tNAgE3q3dSIHld7dVEuq-15" value="1" style="text;html=1;align=center;verticalAlign=middle;resizable=0;points=[];autosize=1;strokeColor=none;fillColor=none;" vertex="1" parent="1">
          <mxGeometry x="370" y="200" width="30" height="30" as="geometry" />
        </mxCell>
        <mxCell id="tNAgE3q3dSIHld7dVEuq-16" value="1" style="text;html=1;align=center;verticalAlign=middle;resizable=0;points=[];autosize=1;strokeColor=none;fillColor=none;" vertex="1" parent="1">
          <mxGeometry x="370" y="240" width="30" height="30" as="geometry" />
        </mxCell>
        <mxCell id="tNAgE3q3dSIHld7dVEuq-29" value="1" style="text;html=1;align=center;verticalAlign=middle;resizable=0;points=[];autosize=1;strokeColor=none;fillColor=none;" vertex="1" parent="1">
          <mxGeometry x="370" y="420" width="30" height="30" as="geometry" />
        </mxCell>
        <mxCell id="tNAgE3q3dSIHld7dVEuq-31" value="1" style="text;html=1;align=center;verticalAlign=middle;resizable=0;points=[];autosize=1;strokeColor=none;fillColor=none;" vertex="1" parent="1">
          <mxGeometry x="370" y="390" width="30" height="30" as="geometry" />
        </mxCell>
        <mxCell id="tNAgE3q3dSIHld7dVEuq-33" value="1" style="text;html=1;align=center;verticalAlign=middle;resizable=0;points=[];autosize=1;strokeColor=none;fillColor=none;" vertex="1" parent="1">
          <mxGeometry x="520" y="298" width="30" height="30" as="geometry" />
        </mxCell>
        <mxCell id="tNAgE3q3dSIHld7dVEuq-34" value="1" style="text;html=1;align=center;verticalAlign=middle;resizable=0;points=[];autosize=1;strokeColor=none;fillColor=none;" vertex="1" parent="1">
          <mxGeometry x="470" y="298" width="30" height="30" as="geometry" />
        </mxCell>
      </root>
    </mxGraphModel>
  </diagram>
</mxfile>
